<svg width="1200" height="800" viewBox="0 0 1200 800" fill="none" xmlns="http://www.w3.org/2000/svg">
  <rect width="1200" height="800" fill="#1E3A8A"/>
  <rect y="520" width="1200" height="280" fill="#0F172A"/>
  <circle cx="960" cy="150" r="88" fill="#FBCFE8"/>
  <path d="M0 446C154 392 308 362 466 362C653 362 795 420 925 420C1031 420 1125 380 1200 338V520H0V446Z" fill="#2563EB" opacity="0.72"/>
  <path d="M240 536H306V232H240V536Z" fill="#BFDBFE"/>
  <path d="M214 232H332L286 148H260L214 232Z" fill="#DBEAFE"/>
  <rect x="520" y="286" width="54" height="250" fill="#93C5FD"/>
  <rect x="602" y="250" width="54" height="286" fill="#7DD3FC"/>
  <rect x="684" y="316" width="54" height="220" fill="#60A5FA"/>
  <path d="M104 648C273 598 451 572 630 590C843 612 1044 666 1200 734V800H0V694C37 680 69 664 104 648Z" fill="#020617"/>
  <text x="76" y="108" fill="#E0E7FF" font-family="Arial, sans-serif" font-size="52" font-weight="700">SkyBridge Air • Seoul</text>
</svg>
